<?xml version="1.0" encoding="UTF-8"?>
<svg width="18px" height="18px" viewBox="0 0 18 18" version="1.1" xmlns="http://www.w3.org/2000/svg" xmlns:xlink="http://www.w3.org/1999/xlink">
    <!-- Generator: Sketch 52.3 (67297) - http://www.bohemiancoding.com/sketch -->
    <title>wallet - simple-line-icons</title>
    <desc>Created with Sketch.</desc>
    <g id="Payment-new" stroke="none" stroke-width="1" fill="none" fill-rule="evenodd">
        <g id="homepage" transform="translate(-347.000000, -239.000000)" fill="#9F89B8">
            <g id="dashboard" transform="translate(-1.000000, 0.000000)">
                <g id="left-side" transform="translate(316.000000, 10.000000)">
                    <g id="nav-home" transform="translate(0.000000, 171.000000)">
                        <path d="M50,63.2226562 L50,73.59375 C50,74.0625023 49.8359391,74.4609359 49.5078125,74.7890625 C49.1796859,75.1171891 48.7812523,75.28125 48.3125,75.28125 L33.6875,75.28125 C33.2187477,75.28125 32.8203141,75.1171891 32.4921875,74.7890625 C32.1640609,74.4609359 32,74.0625023 32,73.59375 L32,64.59375 C32,64.1367165 32.1640609,63.7441423 32.4921875,63.4160156 C32.8203141,63.087889 33.2128883,62.9179688 33.6699219,62.90625 L34.2324219,62.90625 L34.2324219,60.65625 C34.2324219,60.1874977 34.3994124,59.7890641 34.7333984,59.4609375 C35.0673845,59.1328109 35.4628883,58.96875 35.9199219,58.96875 L48.6289062,61.5 C49.2617219,61.6757821 49.6484368,61.9570293 49.7890625,62.34375 C49.9296882,62.7304707 50,63.0234365 50,63.2226562 Z M35.3574219,60.65625 C35.3574219,60.5039055 35.4072261,60.3750005 35.5068359,60.2695312 C35.6064458,60.164062 35.7324211,60.1054688 35.8847656,60.09375 L48.2949219,62.6074219 L48.1894531,62.765625 C48.1191403,62.8710943 47.9726574,62.9179688 47.75,62.90625 L35.3574219,62.90625 L35.3574219,60.65625 Z M35.375,67.96875 C35.679689,67.96875 35.9433583,68.080077 36.1660156,68.3027344 C36.388673,68.5253917 36.5,68.789061 36.5,69.09375 C36.5,69.4101578 36.388673,69.6767567 36.1660156,69.8935547 C35.9433583,70.1103526 35.679689,70.21875 35.375,70.21875 C35.0585922,70.21875 34.7919933,70.1103526 34.5751953,69.8935547 C34.3583974,69.6767567 34.25,69.4101578 34.25,69.09375 C34.25,68.789061 34.3583974,68.5253917 34.5751953,68.3027344 C34.7919933,68.080077 35.0585922,67.96875 35.375,67.96875 Z" id="wallet---simple-line-icons" transform="translate(41.000000, 67.125000) scale(-1, 1) translate(-41.000000, -67.125000) "></path>
                    </g>
                </g>
            </g>
        </g>
    </g>
</svg>