<?xml version="1.0" encoding="UTF-8"?>
<svg width="32px" height="32px" viewBox="0 0 32 32" version="1.1" xmlns="http://www.w3.org/2000/svg" xmlns:xlink="http://www.w3.org/1999/xlink">
    <!-- Generator: Sketch 52.3 (67297) - http://www.bohemiancoding.com/sketch -->
    <title>shipping-screen-android-hyperlocal</title>
    <desc>Created with Sketch.</desc>
    <g id="shipping-screen-android-hyperlocal" stroke="none" stroke-width="1" fill="none" fill-rule="evenodd">
        <g id="credit-card-(2)" transform="translate(0.000000, 5.000000)" fill="#5C2D91" fill-rule="nonzero">
            <path d="M0,8 L0,20 C0,21.104 0.898,22 2,22 L30,22 C31.104,22 32,21.104 32,20 L32,8 L0,8 Z M11,16 L5,16 C4.448,16 4,15.552 4,15 C4,14.448 4.448,14 5,14 L11,14 C11.552,14 12,14.448 12,15 C12,15.552 11.552,16 11,16 Z M20.0254024,16.1062659 C20.0553322,15.9466669 20.0333253,15.8304771 19.9593813,15.7576929 C19.8854373,15.6849088 19.7366712,15.5985337 19.5130785,15.4985651 C19.0923017,15.3494891 18.7811253,15.1723543 18.5795398,14.9671556 C18.3779542,14.7619569 18.3088528,14.5032701 18.3722334,14.1910874 C18.4373746,13.8683817 18.6077074,13.6184639 18.8832369,13.4413265 C19.1587665,13.2641892 19.4884287,13.1756218 19.8722334,13.1756218 C20.2718833,13.1756218 20.5848203,13.2808504 20.8110538,13.4913106 C21.0372874,13.7017708 21.1107902,13.9876417 21.0315644,14.3489318 L21.0236419,14.3647162 L20.1653672,14.3647162 C20.1952969,14.2103787 20.169769,14.0876121 20.0887827,13.9964126 C20.0077964,13.9052132 19.8898398,13.8596142 19.7349095,13.8596142 C19.625754,13.8596142 19.5236423,13.8916212 19.4285714,13.9556362 C19.3335006,14.0196511 19.2771631,14.0963803 19.2595574,14.1858259 C19.2296276,14.3313942 19.2569161,14.4379381 19.3414236,14.5054608 C19.425931,14.5729834 19.6143094,14.66462 19.9065644,14.7803731 C20.286848,14.9154184 20.5650142,15.0859763 20.7410714,15.292052 C20.9171287,15.4981276 20.9717056,15.7677758 20.9048038,16.1010045 C20.8361415,16.4377408 20.6671291,16.6911662 20.3977616,16.8612883 C20.128394,17.0314103 19.7982917,17.11647 19.4074447,17.11647 C19.0201188,17.11647 18.6913369,17.020449 18.4210891,16.828404 C18.1508412,16.6363591 18.0606133,16.3412807 18.1504024,15.9431601 L18.1556841,15.9273756 L19.0139588,15.9273756 C18.9734656,16.1202975 19.0091167,16.2527101 19.120913,16.3246173 C19.2327093,16.3965246 19.3739931,16.4324777 19.5447686,16.4324777 C19.650403,16.4324777 19.7520745,16.4013476 19.8497862,16.3390864 C19.947498,16.2768253 20.0060361,16.1992192 20.0254024,16.1062659 Z M24.3567656,15.7169165 L24.3646881,15.7327009 C24.2572932,16.1886981 24.0741965,16.5333215 23.8153924,16.7665816 C23.5565882,16.9998417 23.2071199,17.11647 22.7669769,17.11647 C22.342679,17.11647 22.0028936,16.9678347 21.7476107,16.6705596 C21.4923277,16.3732845 21.4104623,15.9984079 21.5020121,15.5459184 L21.6631036,14.7461735 C21.7634562,14.2445766 21.9584367,13.8574232 22.2480508,13.5847018 C22.5376649,13.3119805 22.8963761,13.1756218 23.3241952,13.1756218 C23.7608171,13.1756218 24.0966412,13.3018961 24.3316776,13.5544483 C24.566714,13.8070006 24.6551814,14.1498703 24.5970825,14.5830676 L24.5918008,14.5962213 L23.7282445,14.5962213 C23.7704982,14.3506844 23.7546533,14.1665344 23.6807093,14.0437659 C23.6067652,13.9209975 23.4615202,13.8596142 23.2449698,13.8596142 C23.0829972,13.8596142 22.9390726,13.9407278 22.8131917,14.1029576 C22.6873107,14.2651874 22.597963,14.4778367 22.5451459,14.740912 L22.3840543,15.5459184 C22.3259555,15.8300397 22.334318,16.0488274 22.4091424,16.2022879 C22.4839667,16.3557485 22.6199688,16.4324777 22.8171529,16.4324777 C22.9967313,16.4324777 23.141096,16.3737251 23.2502515,16.2562181 C23.359407,16.1387111 23.4421526,15.9589457 23.498491,15.7169165 L24.3567656,15.7169165 Z M27.7849598,13.9148597 L26.8685865,13.9148597 L26.2374245,17.0612245 L25.3527414,17.0612245 L25.9839034,13.9148597 L25.0754527,13.9148597 L25.2127767,13.2308673 L27.9222837,13.2308673 L27.7849598,13.9148597 Z" id="Shape"></path>
            <path d="M30,0 L2,0 C0.898,0 0,0.898 0,2 L0,4 L32,4 L32,2 C32,0.898 31.104,0 30,0 Z" id="Shape"></path>
        </g>
    </g>
</svg>