<?xml version="1.0" encoding="UTF-8"?>
<svg width="32px" height="32px" viewBox="0 0 32 32" version="1.1" xmlns="http://www.w3.org/2000/svg" xmlns:xlink="http://www.w3.org/1999/xlink">
    <!-- Generator: Sketch 52.3 (67297) - http://www.bohemiancoding.com/sketch -->
    <title>shipping-screen-android-hyperlocal</title>
    <desc>Created with Sketch.</desc>
    <g id="shipping-screen-android-hyperlocal" stroke="none" stroke-width="1" fill="none" fill-rule="evenodd">
        <g id="connectIPS" transform="translate(0.000000, 0.800000)" fill="#5C2D91" fill-rule="nonzero">
            <path d="M31.5733333,14.725 C31.5733333,14.725 31.6444444,9.93409091 28.4444444,6.975 C28.4444444,6.975 26.5955556,4.65 22.0444444,4.79090909 C22.0444444,4.79090909 20.6222222,1.33863636 17.4222222,0.352272727 C16.9955556,0.211363636 16.5688889,0.140909091 16.1422222,0.140909091 C15.5733333,0.0704545455 14.7911111,0.0704545455 13.7955556,0.140909091 C10.8088889,0.281818182 8.03555556,1.69090909 6.11555556,3.94545455 C5.12,5.14318182 4.26666667,6.76363636 4.40888889,8.66590909 C4.40888889,8.66590909 -1.56444444,11.8363636 0.64,19.7272727 C0.64,19.7272727 1.70666667,23.4613636 4.90666667,24.9409091 C4.90666667,24.9409091 6.75555556,25.8568182 9.74222222,25.6454545 C9.74222222,25.6454545 11.0222222,28.6045455 14.08,29.8022727 C14.08,29.8022727 17.3511111,31.2818182 22.1155556,29.5204545 C22.1155556,29.5204545 25.5288889,28.3227273 26.5955556,25.2931818 C26.5955556,25.2931818 27.2355556,24.3068182 27.52,21.7704545 C27.7333333,21.7704545 31.6444444,19.375 31.5733333,14.725 Z M10.3111111,10.7795455 L14.2222222,10.7795455 C14.3644444,10.7795455 14.5066667,10.6386364 14.4355556,10.4977273 L13.2977778,6.90454545 C13.2266667,6.76363636 13.0844444,6.76363636 13.0133333,6.83409091 L11.8044444,8.38409091 C11.8044444,8.38409091 9.10222222,7.32727273 6.68444444,8.31363636 C6.68444444,8.31363636 6.82666667,6.48181818 9.17333333,4.79090909 C9.95555556,4.29772727 10.7377778,3.875 11.6622222,3.66363636 C12.8,3.31136364 14.72,2.95909091 16.8533333,3.24090909 C16.8533333,3.24090909 18.7733333,3.52272727 20.0533333,5.35454545 C20.0533333,5.35454545 17.5644444,6.34090909 16.3555556,7.82045455 C16.3555556,7.82045455 15.9288889,8.24318182 15.36,9.15909091 C14.72,10.2863636 14.2933333,11.5545455 14.2222222,12.8227273 C14.2222222,13.3863636 14.2222222,14.0204545 14.2222222,14.4431818 C14.2222222,14.4431818 13.2977778,15.2886364 11.3777778,15.0772727 C9.52888889,14.8659091 7.89333333,13.7386364 7.04,12.1886364 C6.75555556,11.6954545 6.47111111,11.0613636 6.25777778,10.3568182 C6.25777778,10.3568182 8.32,9.22954545 10.4533333,9.93409091 L10.1688889,10.7090909 C10.1688889,10.7090909 10.24,10.7795455 10.3111111,10.7795455 Z M11.0933333,23.7431818 L10.9511111,21.2772727 L12.0888889,21.4181818 C12.2311111,21.4181818 12.3022222,21.3477273 12.2311111,21.2068182 L10.8088889,17.825 C10.7377778,17.7545455 10.6666667,17.6840909 10.5955556,17.7545455 L7.53777778,19.9386364 C7.46666667,20.0090909 7.46666667,20.15 7.60888889,20.2204545 L9.17333333,20.7136364 L9.17333333,23.6727273 C8.24888889,23.7431818 6.96888889,23.25 6.61333333,23.0386364 C5.90222222,22.5454545 5.33333333,21.8409091 4.90666667,21.2068182 C3.98222222,19.8681818 3.55555556,18.2477273 3.41333333,16.6272727 C3.12888889,12.5409091 4.76444444,10.9204545 4.76444444,10.9204545 C6.04444444,18.3181818 14.5066667,17.2613636 14.5066667,17.2613636 C15.1466667,22.6863636 11.0933333,23.7431818 11.0933333,23.7431818 Z M21.76,19.9386364 L18.0622222,19.375 C17.9911111,19.375 17.92,19.4454545 17.92,19.5159091 L18.4888889,23.1795455 C18.4888889,23.3204545 18.6311111,23.3204545 18.7022222,23.25 L19.7688889,22.2636364 C19.7688889,22.2636364 20.6933333,23.1090909 22.8977778,23.0386364 C23.2533333,23.0386364 25.2444444,22.8977273 25.5288889,22.6863636 C25.5288889,22.6863636 25.1733333,25.9272727 19.4844444,27.2659091 C19.4844444,27.2659091 14.08,28.3931818 12.0177778,25.2931818 C12.0177778,25.2931818 15.7155556,23.8840909 17.2088889,20.4318182 C17.2088889,20.4318182 17.9911111,18.5295455 17.8488889,16.4159091 C17.8488889,16.4159091 19.2711111,15.8522727 21.12,15.9227273 C22.4711111,15.9931818 23.68,16.6272727 24.5333333,17.6840909 C25.1022222,18.3886364 25.7422222,19.375 25.8133333,20.2909091 C25.8133333,20.2909091 24.3911111,21.4181818 21.3333333,20.8545455 L21.9022222,20.0090909 C21.9022222,20.0795455 21.8311111,20.0090909 21.76,19.9386364 Z M28.4444444,13.4568182 C28.4444444,18.2477273 27.3066667,19.5159091 27.3066667,19.5159091 C26.88,16.5568182 23.8222222,14.5136364 23.8222222,14.5136364 C20.9777778,12.6818182 17.4222222,13.3159091 17.4222222,13.3159091 C17.28,12.8931818 17.28,11.9772727 17.3511111,11.3431818 C17.4222222,10.4272727 17.7066667,9.58181818 18.1333333,8.80681818 C19.2711111,7.04545455 20.9066667,6.90454545 20.9066667,6.90454545 L21.0488889,9.15909091 L19.7688889,9.15909091 C19.6977778,9.15909091 19.6266667,9.22954545 19.6977778,9.3 L21.6177778,12.8931818 C21.6888889,12.9636364 21.76,12.9636364 21.8311111,12.8931818 L24.3911111,9.79318182 C24.4622222,9.72272727 24.3911111,9.65227273 24.32,9.58181818 L22.9688889,9.37045455 L22.9688889,6.55227273 C24.96,6.90454545 25.9555556,7.67954545 26.1688889,7.89090909 C28.5155556,9.72272727 28.4444444,13.4568182 28.4444444,13.4568182 Z" id="XMLID_23_"></path>
        </g>
    </g>
</svg>