<?xml version="1.0" encoding="UTF-8"?>
<svg width="32px" height="32px" viewBox="0 0 32 32" version="1.1" xmlns="http://www.w3.org/2000/svg" xmlns:xlink="http://www.w3.org/1999/xlink">
    <!-- Generator: Sketch 52.3 (67297) - http://www.bohemiancoding.com/sketch -->
    <title>shipping-screen-android-hyperlocal</title>
    <desc>Created with Sketch.</desc>
    <g id="shipping-screen-android-hyperlocal" stroke="none" stroke-width="1" fill="none" fill-rule="evenodd">
        <g id="smartphone-(1)" transform="translate(6.000000, 0.000000)" fill="#5C2D91" fill-rule="nonzero">
            <path d="M17.85,0 L3.15,0 C1.4175,0 0,1.35 0,3 L0,29 C0,30.65 1.4175,32 3.15,32 L17.85,32 C19.5825,32 21,30.65 21,29 L21,3 C21,1.35 19.5825,0 17.85,0 Z M6.3,1.5 L14.7,1.5 L14.7,2.5 L6.3,2.5 L6.3,1.5 Z M10.5,30 C9.34020938,30 8.4,29.1045625 8.4,28 C8.4,26.8954375 9.34020938,26 10.5,26 C11.6597906,26 12.6,26.8954375 12.6,28 C12.6,29.1045625 11.6597906,30 10.5,30 Z M18.9,24 L2.1,24 L2.1,4 L18.9,4 L18.9,24 Z" id="Shape"></path>
        </g>
    </g>
</svg>